<svg xmlns="http://www.w3.org/2000/svg" viewBox="0 0 21.4 22" style="enable-background:new 0 0 21.4 22" xml:space="preserve"><linearGradient id="a" gradientUnits="userSpaceOnUse" x1="204.331" y1="-302.822" x2="244.52" y2="-319.677" gradientTransform="matrix(.1965 0 0 -.1965 -30.271 -47.053)"><stop offset="0" style="stop-color:#249361"/><stop offset="1" style="stop-color:#3ecf8e"/></linearGradient><path d="M12.5 21.6c-.6.7-1.7.3-1.7-.6l-.2-13.2h8.9c1.6 0 2.5 1.9 1.5 3.1l-8.5 10.7z" style="fill:url(#a)"/><linearGradient id="b" gradientUnits="userSpaceOnUse" x1="206.256" y1="-261.204" x2="224.584" y2="-295.708" gradientTransform="matrix(.1965 0 0 -.1965 -30.271 -47.053)"><stop offset="0" style="stop-color:#000"/><stop offset="1" style="stop-color:#000;stop-opacity:0"/></linearGradient><path d="M12.5 21.6c-.6.7-1.7.3-1.7-.6l-.2-13.2h8.9c1.6 0 2.5 1.9 1.5 3.1l-8.5 10.7z" style="fill:url(#b);fill-opacity:.2"/><path d="M8.9.4c.6-.7 1.7-.3 1.7.6l.1 13.2H1.9c-1.6 0-2.5-1.9-1.5-3.1L8.9.4z" style="fill:#3ecf8e"/></svg>
